# xmcd CD database file
#
# Track frame offsets:
#	150
#	24680
#	50775
#	54146
#	64812
#	98125
#	135120
#	163106
#	195419
#	225752
#
# Disc length: 3469 seconds
#
# Revision: 0
# Processed by: cddbd v1.4PL0 Copyright (c) Steve Scherf et al.
# Submitted via: CDex 1.50
#
DISCID=750d8b0a
DTITLE=Milosc And Lester Bowie - Talkin' About Life And Death
DYEAR=1997
DGENRE=Jazz
TTITLE0=Venus In Furs
TTITLE1=A Tribute To Drukpa Kunley
TTITLE2=Maple Leaves
TTITLE3=Duet
TTITLE4=What If
TTITLE5=Fukan Zazen-gi
TTITLE6=Facing The Wall
TTITLE7=Let's Get Serious
TTITLE8=The Bardo Of Life
TTITLE9=Impressions
EXTD=YEAR: 1997
EXTT0=
EXTT1=
EXTT2=
EXTT3=
EXTT4=
EXTT5=
EXTT6=
EXTT7=
EXTT8=
EXTT9=
PLAYORDER=
